<?xml version="1.0" encoding="utf-8"?>
<!-- Generator: Adobe Illustrator 22.1.0, SVG Export Plug-In . SVG Version: 6.00 Build 0)  -->
<svg version="1.1" id="Capa_1" xmlns="http://www.w3.org/2000/svg" xmlns:xlink="http://www.w3.org/1999/xlink" x="0px" y="0px"
	 viewBox="0 0 60 60" style="enable-background:new 0 0 60 60;" xml:space="preserve">
<metadata><?xpacket begin="﻿" id="W5M0MpCehiHzreSzNTczkc9d"?>
<x:xmpmeta xmlns:x="adobe:ns:meta/" x:xmptk="Adobe XMP Core 5.6-c143 79.161356, 2017/09/07-01:11:22        ">
   <rdf:RDF xmlns:rdf="http://www.w3.org/1999/02/22-rdf-syntax-ns#">
      <rdf:Description rdf:about=""/>
   </rdf:RDF>
</x:xmpmeta>
                                                                                                    
                                                                                                    
                                                                                                    
                                                                                                    
                                                                                                    
                                                                                                    
                                                                                                    
                                                                                                    
                                                                                                    
                                                                                                    
                                                                                                    
                                                                                                    
                                                                                                    
                                                                                                    
                                                                                                    
                                                                                                    
                                                                                                    
                                                                                                    
                                                                                                    
                                                                                                    
                           
<?xpacket end="w"?></metadata>
<style type="text/css">
	.st0{fill:#E94030;}
	.st1{fill:#FFFFFF;}
	.st2{fill:#0D3667;}
</style>
<circle class="st0" cx="30" cy="30" r="30"/>
<g>
	<g>
		<path class="st1" d="M19.6,21.8h-2c-0.7,0-1.2-0.6-1.2-1.2v-2c0-0.7,0.6-1.2,1.2-1.2h2c0.7,0,1.2,0.6,1.2,1.2v2
			C20.8,21.3,20.2,21.8,19.6,21.8z"/>
		<path class="st1" d="M42.5,21.8H25c-0.7,0-1.2-0.6-1.2-1.2v-2c0-0.7,0.6-1.2,1.2-1.2h17.5c0.7,0,1.2,0.6,1.2,1.2v2
			C43.7,21.3,43.2,21.8,42.5,21.8z"/>
	</g>
	<g>
		<path class="st2" d="M19.6,32.3h-2c-0.7,0-1.2-0.6-1.2-1.2v-2c0-0.7,0.6-1.2,1.2-1.2h2c0.7,0,1.2,0.6,1.2,1.2v2
			C20.8,31.7,20.2,32.3,19.6,32.3z"/>
		<path class="st2" d="M42.5,32.3H25c-0.7,0-1.2-0.6-1.2-1.2v-2c0-0.7,0.6-1.2,1.2-1.2h17.5c0.7,0,1.2,0.6,1.2,1.2v2
			C43.7,31.7,43.2,32.3,42.5,32.3z"/>
	</g>
	<g>
		<path class="st2" d="M19.6,42.7h-2c-0.7,0-1.2-0.6-1.2-1.2v-2c0-0.7,0.6-1.2,1.2-1.2h2c0.7,0,1.2,0.6,1.2,1.2v2
			C20.8,42.2,20.2,42.7,19.6,42.7z"/>
		<path class="st2" d="M42.5,42.7H25c-0.7,0-1.2-0.6-1.2-1.2v-2c0-0.7,0.6-1.2,1.2-1.2h17.5c0.7,0,1.2,0.6,1.2,1.2v2
			C43.7,42.2,43.2,42.7,42.5,42.7z"/>
	</g>
</g>
</svg>
